<svg viewBox="0 0 101 92" fill="none" xmlns="http://www.w3.org/2000/svg">
  <g fill="none" id="preload">
    <path d="M56.9999 28.9844C59.1016 25.4107 63.7025 24.2174 67.2762 26.3191C70.8499 28.4208 72.0432 33.0217 69.9415 36.5954L56.276 59.8319C54.1743 63.4056 49.5734 64.5989 45.9997 62.4972C42.426 60.3955 41.2327 55.7946 43.3344 52.2209L56.9999 28.9844Z" fill="#FFDD3C"/>
    <path d="M44.724 6.47078C46.8257 2.89707 51.4265 1.70378 55.0003 3.80549C58.574 5.90721 59.7673 10.5081 57.6656 14.0818L44.0001 37.3183C41.8983 40.892 37.2975 42.0853 33.7238 39.9836C30.1501 37.8819 28.9568 33.281 31.0585 29.7073L44.724 6.47078Z" fill="#FFDD3C"/>
    <path fill-rule="evenodd" clip-rule="evenodd" d="M0.101349 70.0459C0.0441445 70.103 -0.00137126 73.2775 3.15768e-05 77.1003C0.003149 84.8827 0.055833 85.4087 1.01413 87.2329C3.04747 91.1029 7.72796 92.3883 11.9474 90.2352C13.7359 89.3227 15.2572 87.191 15.5851 85.1381C16.0116 82.4685 15.1837 80.0543 13.2438 78.3098C12.1913 77.3633 11.1007 76.8499 9.50147 76.5483C7.94416 76.2545 6.53446 76.4151 5.16123 77.0425C4.70079 77.2529 4.31501 77.425 4.30394 77.4252C4.29288 77.4252 4.30488 75.7861 4.3306 73.7826L4.37752 70.1399L3.88247 70.0409C3.2261 69.9096 0.233684 69.9135 0.101349 70.0459ZM31.4098 76.4999C28.4916 76.988 26.4931 78.8236 25.7813 81.6703C25.4924 82.8247 25.3085 87.6301 25.4761 89.642L25.5883 90.9882H27.6785C29.5541 90.9882 29.7717 90.9601 29.7981 90.7154C29.8141 90.5654 29.8334 88.9342 29.8409 87.0907C29.8562 83.3375 29.9712 82.3103 30.4571 81.5892C31.419 80.1615 33.7109 79.9556 34.8661 81.1929C35.6853 82.0703 35.7581 82.5081 35.8085 86.8569L35.8554 90.9102L37.9401 90.9536L40.0249 90.9967L40.1404 89.1607C40.2975 86.6601 40.1158 82.5151 39.8025 81.4594C38.9753 78.6703 37.1781 77.0686 34.2998 76.5551C32.9834 76.3202 32.5358 76.3118 31.4098 76.4999ZM47.9931 76.6195C44.1016 77.6355 41.6348 81.7701 42.633 85.6031C43.3532 88.3689 45.6237 90.6009 48.2769 91.1519C49.5081 91.4075 51.4682 91.2646 52.5764 90.8385C54.4843 90.1049 56.1785 88.3998 56.9039 86.4833C57.3088 85.4137 57.461 83.3973 57.2212 82.2792C56.7683 80.167 55.1868 78.1414 53.2479 77.1904C51.4403 76.3038 49.8598 76.1322 47.9931 76.6195ZM65.6046 76.4999C62.9581 76.8892 61.075 78.4256 60.1236 80.9719C59.8149 81.7978 59.7842 82.2256 59.7319 86.4282L59.675 90.9882H61.8637H64.0526L64.0196 86.8179C63.9884 82.8668 64.004 82.61 64.3156 81.9317C64.8081 80.8598 65.4601 80.465 66.7378 80.465C67.9171 80.465 68.4337 80.7394 68.9703 81.6507C69.2585 82.14 69.2858 82.5115 69.332 86.584L69.3817 90.9882H71.5441H73.7063L73.7543 86.662C73.8005 82.4989 73.8158 82.3106 74.1593 81.6672C74.6931 80.6674 75.2879 80.359 76.5614 80.4225C77.4143 80.4649 77.6817 80.545 78.018 80.8595C78.9185 81.701 78.9397 81.8201 79.024 86.5451L79.102 90.9102L81.2452 90.9536L83.3884 90.9969V86.8689C83.3884 82.4392 83.2996 81.6672 82.6142 80.1458C81.4266 77.5089 78.1485 75.915 75.2052 76.5433C73.8168 76.8396 73.1642 77.1201 72.2639 77.8073L71.5422 78.3584L70.8018 77.7922C69.825 77.0451 69.0199 76.7135 67.6782 76.5054C67.0701 76.4109 66.5509 76.3423 66.5244 76.3528C66.4981 76.3632 66.0841 76.4295 65.6046 76.4999ZM91.7701 76.5762C89.0045 77.2467 86.7693 79.5669 86.1861 82.3728C85.0686 87.7506 90.096 92.4591 95.463 91.061C98.6239 90.2375 100.993 87.1804 101 83.9173C101.004 81.8747 100.106 79.799 98.6253 78.4276C96.6884 76.6343 94.2484 75.9753 91.7701 76.5762ZM18.2343 83.8904V90.9882H20.322H22.4096L22.5175 88.4548C22.5769 87.0616 22.602 83.887 22.5731 81.4004L22.5208 76.8794L20.3775 76.836L18.2343 76.7927V83.8904ZM8.8041 80.2501C11.4187 80.9758 12.4942 84.169 10.7932 86.1566C8.48643 88.8519 4.3228 87.3977 4.3228 83.8967C4.3228 82.1957 5.12538 80.9787 6.63655 80.3885C7.52892 80.0401 7.95024 80.0131 8.8041 80.2501ZM51.8677 80.6468C52.3063 80.9181 52.7831 81.4001 53.0674 81.86C53.4925 82.5478 53.5391 82.7499 53.5391 83.9081C53.5391 85.0866 53.5 85.2486 53.0671 85.8647C52.8076 86.2341 52.2946 86.7476 51.9272 87.0059C51.3639 87.4019 51.082 87.4844 50.126 87.5327C49.1481 87.582 48.8835 87.5346 48.1971 87.1866C46.5251 86.3393 45.7747 84.5276 46.3248 82.6657C46.5576 81.8775 47.8571 80.5265 48.6292 80.2697C49.5614 79.9598 51.0339 80.1313 51.8677 80.6468ZM94.8 80.3179C95.5595 80.5768 96.514 81.4171 96.9066 82.1729C97.3072 82.9437 97.3492 84.4303 96.993 85.2321C96.3008 86.7903 95.1529 87.5584 93.5168 87.5584C91.9355 87.5584 90.7939 86.8474 90.1481 85.4602C88.7152 82.3824 91.5765 79.2194 94.8 80.3179Z" fill="white"/>
  </g>

  <g fill="none" id="circle-grey">
    <circle cx="5.5" cy="5.5" r="5.5" fill="#4E4E50" />
  </g>

  <g fill="none" id="circle-yellow">
    <circle cx="5.5" cy="5.5" r="5.5" fill="#ffdd3c" />
  </g>

  <g fill="none" id="1-step">
    <rect width="51" height="51" rx="25.5" fill="#FFDD3C"/>
    <path d="M25.2925 32V22.3877H25.1431L22.2046 24.4297V22.1719L25.3008 20.022H27.7993V32H25.2925Z" fill="#1C1C1F"/>
  </g>

  <g fill="none" id="2-step">
    <rect width="51" height="51" rx="25.5" fill="#FFDD3C"/>
    <path d="M21.2417 32V30.3149L25.1016 26.5049C25.666 25.9626 26.1032 25.5171 26.4131 25.1685C26.723 24.8143 26.9388 24.5072 27.0605 24.2471C27.1823 23.9814 27.2432 23.7075 27.2432 23.4253V23.4004C27.2432 23.0573 27.1685 22.7557 27.019 22.4956C26.8752 22.2355 26.6649 22.0335 26.3882 21.8896C26.1115 21.7402 25.7822 21.6655 25.4004 21.6655C25.013 21.6655 24.6699 21.7485 24.3711 21.9146C24.0723 22.075 23.8398 22.2992 23.6738 22.5869C23.5078 22.8691 23.4248 23.2012 23.4248 23.583V23.6245H21.1089L21.1006 23.583C21.1006 22.8193 21.286 22.147 21.6567 21.5659C22.033 20.9849 22.5505 20.5311 23.209 20.2046C23.873 19.8781 24.6423 19.7148 25.5166 19.7148C26.3411 19.7148 27.0661 19.8615 27.6914 20.1548C28.3223 20.4481 28.8148 20.8548 29.1689 21.375C29.5286 21.8952 29.7085 22.5011 29.7085 23.1929V23.2178C29.7085 23.6715 29.62 24.117 29.4429 24.5542C29.2658 24.9858 28.967 25.4535 28.5464 25.957C28.1258 26.4606 27.5503 27.05 26.8198 27.7251L23.9312 30.4229L24.6035 29.3271V30.4229L23.9312 29.9829H29.8828V32H21.2417Z" fill="#1C1C1F"/>
  </g>

  <g fill="none" id="3-step">
    <rect width="51" height="51" rx="25.5" fill="#FFDD3C"/>
    <path d="M25 32.2656C24.098 32.2656 23.3066 32.1162 22.626 31.8174C21.9508 31.513 21.4168 31.0924 21.0239 30.5557C20.631 30.0133 20.4041 29.3853 20.3433 28.6714L20.335 28.5635H22.7339L22.7422 28.6548C22.7809 28.9647 22.8944 29.2414 23.0825 29.4849C23.2762 29.7228 23.5363 29.911 23.8628 30.0493C24.1893 30.1821 24.5684 30.2485 25 30.2485C25.4261 30.2485 25.7969 30.1766 26.1123 30.0327C26.4333 29.8833 26.6795 29.6785 26.8511 29.4185C27.0282 29.1584 27.1167 28.8595 27.1167 28.522V28.5054C27.1167 27.9299 26.9119 27.4899 26.5024 27.1855C26.0985 26.8812 25.534 26.729 24.8091 26.729H23.4395V24.9443H24.7759C25.1965 24.9443 25.5617 24.8752 25.8716 24.7368C26.1815 24.5985 26.4222 24.4076 26.5938 24.1641C26.7653 23.915 26.8511 23.63 26.8511 23.3091V23.2925C26.8511 22.9604 26.7764 22.6755 26.627 22.4375C26.4831 22.194 26.27 22.0086 25.9878 21.8813C25.7111 21.7485 25.3763 21.6821 24.9834 21.6821C24.5905 21.6821 24.2446 21.7485 23.9458 21.8813C23.647 22.0142 23.409 22.2051 23.2319 22.4541C23.0549 22.6976 22.9497 22.9854 22.9165 23.3174L22.9082 23.3921H20.6006L20.6089 23.2925C20.6698 22.5731 20.8856 21.9505 21.2563 21.4248C21.6326 20.8936 22.1362 20.484 22.7671 20.1963C23.4035 19.903 24.1423 19.7563 24.9834 19.7563C25.8411 19.7563 26.5882 19.8919 27.2246 20.1631C27.861 20.4287 28.3507 20.8022 28.6938 21.2837C29.0425 21.7596 29.2168 22.3185 29.2168 22.9604V22.9771C29.2168 23.4751 29.1061 23.9123 28.8848 24.2886C28.6634 24.6649 28.3646 24.9748 27.9883 25.2183C27.612 25.4618 27.1886 25.6333 26.7183 25.7329V25.7827C27.6092 25.8657 28.3231 26.1535 28.8599 26.646C29.3966 27.1385 29.665 27.7915 29.665 28.605V28.6216C29.665 29.3465 29.4686 29.9829 29.0757 30.5308C28.6883 31.0786 28.146 31.5047 27.4487 31.8091C26.7515 32.1134 25.9352 32.2656 25 32.2656Z" fill="#1C1C1F"/>
  </g>

</svg>
